<mxfile host="app.diagrams.net" modified="2022-04-03T03:21:03.604Z" agent="5.0 (Windows)" etag="auObnhHGbozA38JynkUi" version="17.4.0" type="github" pages="2">
  <diagram id="5YjEK9a9yHQLzvG_VwFQ" name="SoftwareScoping">
    <mxGraphModel dx="1224" dy="1018" grid="1" gridSize="10" guides="1" tooltips="1" connect="1" arrows="1" fold="1" page="1" pageScale="1" pageWidth="1100" pageHeight="850" math="0" shadow="0">
      <root>
        <mxCell id="0" />
        <mxCell id="1" parent="0" />
        <mxCell id="JKTCXAzDfnzjs9WarzgN-3" value="" style="rounded=0;orthogonalLoop=1;jettySize=auto;html=1;" parent="1" source="JKTCXAzDfnzjs9WarzgN-1" target="JKTCXAzDfnzjs9WarzgN-2" edge="1">
          <mxGeometry relative="1" as="geometry" />
        </mxCell>
        <mxCell id="JKTCXAzDfnzjs9WarzgN-5" value="" style="rounded=0;orthogonalLoop=1;jettySize=auto;html=1;" parent="1" source="JKTCXAzDfnzjs9WarzgN-1" target="JKTCXAzDfnzjs9WarzgN-4" edge="1">
          <mxGeometry relative="1" as="geometry" />
        </mxCell>
        <mxCell id="JKTCXAzDfnzjs9WarzgN-17" value="" style="edgeStyle=none;shape=connector;rounded=0;orthogonalLoop=1;jettySize=auto;html=1;labelBackgroundColor=default;fontFamily=Helvetica;fontSize=11;fontColor=default;endArrow=classic;" parent="1" source="JKTCXAzDfnzjs9WarzgN-1" target="JKTCXAzDfnzjs9WarzgN-16" edge="1">
          <mxGeometry relative="1" as="geometry" />
        </mxCell>
        <mxCell id="JKTCXAzDfnzjs9WarzgN-18" value="" style="edgeStyle=none;shape=connector;rounded=0;orthogonalLoop=1;jettySize=auto;html=1;labelBackgroundColor=default;fontFamily=Helvetica;fontSize=11;fontColor=default;endArrow=classic;" parent="1" source="JKTCXAzDfnzjs9WarzgN-1" target="JKTCXAzDfnzjs9WarzgN-8" edge="1">
          <mxGeometry relative="1" as="geometry" />
        </mxCell>
        <mxCell id="oZwaQyuu4bqZn-d1Vnl--2" value="" style="edgeStyle=none;shape=connector;rounded=0;orthogonalLoop=1;jettySize=auto;html=1;labelBackgroundColor=default;fontFamily=Helvetica;fontSize=12;fontColor=default;endArrow=classic;" parent="1" source="JKTCXAzDfnzjs9WarzgN-1" target="oZwaQyuu4bqZn-d1Vnl--4" edge="1">
          <mxGeometry relative="1" as="geometry">
            <mxPoint x="619.090909090909" y="550" as="targetPoint" />
          </mxGeometry>
        </mxCell>
        <mxCell id="CuTRluE-jHdKFat5ODaT-15" value="" style="edgeStyle=none;shape=connector;rounded=0;orthogonalLoop=1;jettySize=auto;html=1;labelBackgroundColor=default;fontFamily=Helvetica;fontSize=12;fontColor=default;endArrow=classic;strokeColor=default;" edge="1" parent="1" source="JKTCXAzDfnzjs9WarzgN-1" target="CuTRluE-jHdKFat5ODaT-14">
          <mxGeometry relative="1" as="geometry" />
        </mxCell>
        <mxCell id="wsBJ_Oin9y2qOtmXqsdJ-2" value="" style="edgeStyle=none;shape=connector;rounded=0;orthogonalLoop=1;jettySize=auto;html=1;labelBackgroundColor=default;fontFamily=Helvetica;fontSize=12;fontColor=default;endArrow=classic;strokeColor=default;" edge="1" parent="1" source="JKTCXAzDfnzjs9WarzgN-1" target="wsBJ_Oin9y2qOtmXqsdJ-1">
          <mxGeometry relative="1" as="geometry" />
        </mxCell>
        <mxCell id="JKTCXAzDfnzjs9WarzgN-1" value="&lt;b&gt;Modern Space Software Framework&lt;/b&gt;" style="rounded=1;whiteSpace=wrap;html=1;" parent="1" vertex="1">
          <mxGeometry x="470" y="320" width="160" height="80" as="geometry" />
        </mxCell>
        <mxCell id="JKTCXAzDfnzjs9WarzgN-20" value="" style="edgeStyle=none;shape=connector;rounded=0;orthogonalLoop=1;jettySize=auto;html=1;labelBackgroundColor=default;fontFamily=Helvetica;fontSize=11;fontColor=default;endArrow=classic;" parent="1" source="JKTCXAzDfnzjs9WarzgN-2" target="JKTCXAzDfnzjs9WarzgN-19" edge="1">
          <mxGeometry relative="1" as="geometry" />
        </mxCell>
        <mxCell id="JKTCXAzDfnzjs9WarzgN-24" value="" style="edgeStyle=none;shape=connector;rounded=0;orthogonalLoop=1;jettySize=auto;html=1;labelBackgroundColor=default;fontFamily=Helvetica;fontSize=12;fontColor=default;endArrow=classic;strokeColor=default;" parent="1" source="JKTCXAzDfnzjs9WarzgN-2" target="JKTCXAzDfnzjs9WarzgN-23" edge="1">
          <mxGeometry relative="1" as="geometry" />
        </mxCell>
        <mxCell id="CuTRluE-jHdKFat5ODaT-10" value="" style="edgeStyle=none;shape=connector;rounded=0;orthogonalLoop=1;jettySize=auto;html=1;labelBackgroundColor=default;fontFamily=Helvetica;fontSize=12;fontColor=default;endArrow=classic;strokeColor=default;" edge="1" parent="1" source="JKTCXAzDfnzjs9WarzgN-2" target="CuTRluE-jHdKFat5ODaT-9">
          <mxGeometry relative="1" as="geometry" />
        </mxCell>
        <mxCell id="CuTRluE-jHdKFat5ODaT-12" value="" style="edgeStyle=none;shape=connector;rounded=0;orthogonalLoop=1;jettySize=auto;html=1;labelBackgroundColor=default;fontFamily=Helvetica;fontSize=12;fontColor=default;endArrow=classic;strokeColor=default;" edge="1" parent="1" source="JKTCXAzDfnzjs9WarzgN-2" target="CuTRluE-jHdKFat5ODaT-11">
          <mxGeometry relative="1" as="geometry" />
        </mxCell>
        <mxCell id="CuTRluE-jHdKFat5ODaT-19" value="" style="edgeStyle=none;shape=connector;rounded=0;orthogonalLoop=1;jettySize=auto;html=1;labelBackgroundColor=default;fontFamily=Helvetica;fontSize=12;fontColor=default;endArrow=classic;strokeColor=default;" edge="1" parent="1" source="JKTCXAzDfnzjs9WarzgN-2" target="CuTRluE-jHdKFat5ODaT-18">
          <mxGeometry relative="1" as="geometry" />
        </mxCell>
        <mxCell id="JKTCXAzDfnzjs9WarzgN-2" value="Flight Software Core" style="whiteSpace=wrap;html=1;rounded=1;" parent="1" vertex="1">
          <mxGeometry x="490" y="140" width="120" height="60" as="geometry" />
        </mxCell>
        <mxCell id="JKTCXAzDfnzjs9WarzgN-27" value="" style="edgeStyle=none;shape=connector;rounded=0;orthogonalLoop=1;jettySize=auto;html=1;labelBackgroundColor=default;fontFamily=Helvetica;fontSize=12;fontColor=default;endArrow=classic;" parent="1" source="JKTCXAzDfnzjs9WarzgN-4" target="JKTCXAzDfnzjs9WarzgN-14" edge="1">
          <mxGeometry relative="1" as="geometry" />
        </mxCell>
        <mxCell id="CuTRluE-jHdKFat5ODaT-25" value="" style="edgeStyle=none;shape=connector;rounded=0;orthogonalLoop=1;jettySize=auto;html=1;labelBackgroundColor=default;fontFamily=Helvetica;fontSize=12;fontColor=default;endArrow=classic;strokeColor=default;" edge="1" parent="1" source="JKTCXAzDfnzjs9WarzgN-4" target="CuTRluE-jHdKFat5ODaT-24">
          <mxGeometry relative="1" as="geometry" />
        </mxCell>
        <mxCell id="JKTCXAzDfnzjs9WarzgN-4" value="Simulation" style="whiteSpace=wrap;html=1;rounded=1;" parent="1" vertex="1">
          <mxGeometry x="690" y="330" width="120" height="60" as="geometry" />
        </mxCell>
        <mxCell id="JKTCXAzDfnzjs9WarzgN-8" value="Ground Software" style="whiteSpace=wrap;html=1;rounded=1;" parent="1" vertex="1">
          <mxGeometry x="170" y="620" width="120" height="60" as="geometry" />
        </mxCell>
        <mxCell id="JKTCXAzDfnzjs9WarzgN-12" value="Modular Models" style="ellipse;whiteSpace=wrap;html=1;rounded=1;" parent="1" vertex="1">
          <mxGeometry x="920" y="300" width="120" height="60" as="geometry" />
        </mxCell>
        <mxCell id="JKTCXAzDfnzjs9WarzgN-13" value="" style="rounded=0;orthogonalLoop=1;jettySize=auto;html=1;" parent="1" source="JKTCXAzDfnzjs9WarzgN-4" target="JKTCXAzDfnzjs9WarzgN-12" edge="1">
          <mxGeometry relative="1" as="geometry">
            <mxPoint x="769" y="400" as="sourcePoint" />
            <mxPoint x="784.0427389690815" y="450.14246323027146" as="targetPoint" />
          </mxGeometry>
        </mxCell>
        <mxCell id="JKTCXAzDfnzjs9WarzgN-14" value="HITL/HOOTL Interface" style="ellipse;whiteSpace=wrap;html=1;rounded=1;" parent="1" vertex="1">
          <mxGeometry x="660" y="200" width="120" height="60" as="geometry" />
        </mxCell>
        <mxCell id="JKTCXAzDfnzjs9WarzgN-15" value="" style="rounded=0;orthogonalLoop=1;jettySize=auto;html=1;" parent="1" source="JKTCXAzDfnzjs9WarzgN-4" target="JKTCXAzDfnzjs9WarzgN-14" edge="1">
          <mxGeometry relative="1" as="geometry">
            <mxPoint x="769" y="340" as="sourcePoint" />
            <mxPoint x="794.0427389690815" y="460.14246323027146" as="targetPoint" />
          </mxGeometry>
        </mxCell>
        <mxCell id="CuTRluE-jHdKFat5ODaT-6" value="" style="edgeStyle=none;shape=connector;rounded=0;orthogonalLoop=1;jettySize=auto;html=1;labelBackgroundColor=default;fontFamily=Helvetica;fontSize=12;fontColor=default;endArrow=classic;strokeColor=default;" edge="1" parent="1" source="JKTCXAzDfnzjs9WarzgN-16" target="CuTRluE-jHdKFat5ODaT-5">
          <mxGeometry relative="1" as="geometry" />
        </mxCell>
        <mxCell id="JKTCXAzDfnzjs9WarzgN-16" value="Configuration managment" style="whiteSpace=wrap;html=1;rounded=1;" parent="1" vertex="1">
          <mxGeometry x="160" y="220" width="120" height="60" as="geometry" />
        </mxCell>
        <mxCell id="JKTCXAzDfnzjs9WarzgN-19" value="Componentized Tasks" style="ellipse;whiteSpace=wrap;html=1;rounded=1;" parent="1" vertex="1">
          <mxGeometry x="670" y="20" width="120" height="60" as="geometry" />
        </mxCell>
        <mxCell id="JKTCXAzDfnzjs9WarzgN-23" value="Scheduler" style="ellipse;whiteSpace=wrap;html=1;rounded=1;" parent="1" vertex="1">
          <mxGeometry x="570" y="10" width="100" height="60" as="geometry" />
        </mxCell>
        <mxCell id="JKTCXAzDfnzjs9WarzgN-29" value="6DOF and 3DOF" style="ellipse;whiteSpace=wrap;html=1;rounded=1;" parent="1" vertex="1">
          <mxGeometry x="920" y="372" width="120" height="58" as="geometry" />
        </mxCell>
        <mxCell id="JKTCXAzDfnzjs9WarzgN-30" value="" style="rounded=0;orthogonalLoop=1;jettySize=auto;html=1;" parent="1" source="JKTCXAzDfnzjs9WarzgN-4" target="JKTCXAzDfnzjs9WarzgN-29" edge="1">
          <mxGeometry relative="1" as="geometry">
            <mxPoint x="640.0000000000005" y="545" as="sourcePoint" />
            <mxPoint x="664.0427389690815" y="675.1424632302715" as="targetPoint" />
          </mxGeometry>
        </mxCell>
        <mxCell id="oZwaQyuu4bqZn-d1Vnl--6" value="" style="edgeStyle=none;shape=connector;rounded=0;orthogonalLoop=1;jettySize=auto;html=1;labelBackgroundColor=default;fontFamily=Helvetica;fontSize=12;fontColor=default;endArrow=classic;" parent="1" source="oZwaQyuu4bqZn-d1Vnl--4" target="oZwaQyuu4bqZn-d1Vnl--5" edge="1">
          <mxGeometry relative="1" as="geometry" />
        </mxCell>
        <mxCell id="CuTRluE-jHdKFat5ODaT-4" value="" style="edgeStyle=none;shape=connector;rounded=0;orthogonalLoop=1;jettySize=auto;html=1;labelBackgroundColor=default;fontFamily=Helvetica;fontSize=12;fontColor=default;endArrow=classic;strokeColor=default;" edge="1" parent="1" source="oZwaQyuu4bqZn-d1Vnl--4" target="CuTRluE-jHdKFat5ODaT-3">
          <mxGeometry relative="1" as="geometry" />
        </mxCell>
        <mxCell id="oZwaQyuu4bqZn-d1Vnl--4" value="Analysis" style="whiteSpace=wrap;html=1;rounded=1;" parent="1" vertex="1">
          <mxGeometry x="490" y="520" width="120" height="60" as="geometry" />
        </mxCell>
        <mxCell id="oZwaQyuu4bqZn-d1Vnl--5" value="Multibody Dynamics" style="ellipse;whiteSpace=wrap;html=1;rounded=1;" parent="1" vertex="1">
          <mxGeometry x="560" y="680" width="110" height="50" as="geometry" />
        </mxCell>
        <mxCell id="oZwaQyuu4bqZn-d1Vnl--7" value="" style="endArrow=classic;html=1;rounded=0;labelBackgroundColor=default;fontFamily=Helvetica;fontSize=12;fontColor=default;shape=connector;" parent="1" source="JKTCXAzDfnzjs9WarzgN-2" target="JKTCXAzDfnzjs9WarzgN-14" edge="1">
          <mxGeometry width="50" height="50" relative="1" as="geometry">
            <mxPoint x="600" y="430" as="sourcePoint" />
            <mxPoint x="650" y="380" as="targetPoint" />
          </mxGeometry>
        </mxCell>
        <mxCell id="CuTRluE-jHdKFat5ODaT-3" value="Trajectory optimization" style="ellipse;whiteSpace=wrap;html=1;rounded=1;" vertex="1" parent="1">
          <mxGeometry x="410" y="640" width="120" height="50" as="geometry" />
        </mxCell>
        <mxCell id="CuTRluE-jHdKFat5ODaT-5" value="" style="ellipse;whiteSpace=wrap;html=1;rounded=1;" vertex="1" parent="1">
          <mxGeometry x="100" y="300" width="120" height="60" as="geometry" />
        </mxCell>
        <mxCell id="CuTRluE-jHdKFat5ODaT-9" value="Message Handler" style="ellipse;whiteSpace=wrap;html=1;rounded=1;" vertex="1" parent="1">
          <mxGeometry x="440" y="10" width="120" height="60" as="geometry" />
        </mxCell>
        <mxCell id="CuTRluE-jHdKFat5ODaT-11" value="Domain Specific Language" style="ellipse;whiteSpace=wrap;html=1;rounded=1;" vertex="1" parent="1">
          <mxGeometry x="310" y="10" width="120" height="60" as="geometry" />
        </mxCell>
        <mxCell id="CuTRluE-jHdKFat5ODaT-17" value="" style="edgeStyle=none;shape=connector;rounded=0;orthogonalLoop=1;jettySize=auto;html=1;labelBackgroundColor=default;fontFamily=Helvetica;fontSize=12;fontColor=default;endArrow=classic;strokeColor=default;" edge="1" parent="1" source="CuTRluE-jHdKFat5ODaT-14" target="CuTRluE-jHdKFat5ODaT-16">
          <mxGeometry relative="1" as="geometry" />
        </mxCell>
        <mxCell id="wsBJ_Oin9y2qOtmXqsdJ-4" value="" style="edgeStyle=none;shape=connector;rounded=0;orthogonalLoop=1;jettySize=auto;html=1;labelBackgroundColor=default;fontFamily=Helvetica;fontSize=12;fontColor=default;endArrow=classic;strokeColor=default;" edge="1" parent="1" source="CuTRluE-jHdKFat5ODaT-14" target="wsBJ_Oin9y2qOtmXqsdJ-3">
          <mxGeometry relative="1" as="geometry" />
        </mxCell>
        <mxCell id="CuTRluE-jHdKFat5ODaT-14" value="Visualization" style="whiteSpace=wrap;html=1;rounded=1;" vertex="1" parent="1">
          <mxGeometry x="810" y="610" width="120" height="60" as="geometry" />
        </mxCell>
        <mxCell id="CuTRluE-jHdKFat5ODaT-21" value="" style="edgeStyle=none;shape=connector;rounded=0;orthogonalLoop=1;jettySize=auto;html=1;labelBackgroundColor=default;fontFamily=Helvetica;fontSize=12;fontColor=default;endArrow=classic;strokeColor=default;" edge="1" parent="1" source="CuTRluE-jHdKFat5ODaT-16" target="CuTRluE-jHdKFat5ODaT-20">
          <mxGeometry relative="1" as="geometry" />
        </mxCell>
        <mxCell id="CuTRluE-jHdKFat5ODaT-16" value="Telemetry" style="ellipse;whiteSpace=wrap;html=1;rounded=1;" vertex="1" parent="1">
          <mxGeometry x="960" y="600" width="120" height="60" as="geometry" />
        </mxCell>
        <mxCell id="CuTRluE-jHdKFat5ODaT-18" value="Pre-canned Algorithms for LV and SC" style="ellipse;whiteSpace=wrap;html=1;rounded=1;" vertex="1" parent="1">
          <mxGeometry x="300" y="80" width="120" height="60" as="geometry" />
        </mxCell>
        <mxCell id="CuTRluE-jHdKFat5ODaT-20" value="PlotJuggler" style="ellipse;whiteSpace=wrap;html=1;rounded=1;" vertex="1" parent="1">
          <mxGeometry x="990" y="530" width="80" height="40" as="geometry" />
        </mxCell>
        <mxCell id="CuTRluE-jHdKFat5ODaT-22" value="Pre-canned Models for LV and SC" style="ellipse;whiteSpace=wrap;html=1;rounded=1;" vertex="1" parent="1">
          <mxGeometry x="840" y="240" width="120" height="60" as="geometry" />
        </mxCell>
        <mxCell id="CuTRluE-jHdKFat5ODaT-23" value="" style="endArrow=classic;html=1;rounded=0;labelBackgroundColor=default;fontFamily=Helvetica;fontSize=12;fontColor=default;strokeColor=default;shape=connector;" edge="1" parent="1" source="JKTCXAzDfnzjs9WarzgN-4" target="CuTRluE-jHdKFat5ODaT-22">
          <mxGeometry width="50" height="50" relative="1" as="geometry">
            <mxPoint x="560" y="440" as="sourcePoint" />
            <mxPoint x="610" y="390" as="targetPoint" />
          </mxGeometry>
        </mxCell>
        <mxCell id="CuTRluE-jHdKFat5ODaT-24" value="Basilisk/Trick" style="ellipse;whiteSpace=wrap;html=1;rounded=1;" vertex="1" parent="1">
          <mxGeometry x="790" y="410" width="120" height="60" as="geometry" />
        </mxCell>
        <mxCell id="wsBJ_Oin9y2qOtmXqsdJ-1" value="Test Infrastructure" style="whiteSpace=wrap;html=1;rounded=1;" vertex="1" parent="1">
          <mxGeometry x="200" y="425" width="120" height="60" as="geometry" />
        </mxCell>
        <mxCell id="wsBJ_Oin9y2qOtmXqsdJ-6" value="" style="edgeStyle=none;shape=connector;rounded=0;orthogonalLoop=1;jettySize=auto;html=1;labelBackgroundColor=default;fontFamily=Helvetica;fontSize=12;fontColor=default;endArrow=classic;strokeColor=default;" edge="1" parent="1" source="wsBJ_Oin9y2qOtmXqsdJ-3" target="wsBJ_Oin9y2qOtmXqsdJ-5">
          <mxGeometry relative="1" as="geometry" />
        </mxCell>
        <mxCell id="wsBJ_Oin9y2qOtmXqsdJ-3" value="3D Visualization" style="ellipse;whiteSpace=wrap;html=1;rounded=1;" vertex="1" parent="1">
          <mxGeometry x="860" y="700" width="120" height="60" as="geometry" />
        </mxCell>
        <mxCell id="wsBJ_Oin9y2qOtmXqsdJ-5" value="Cesium" style="ellipse;whiteSpace=wrap;html=1;rounded=1;" vertex="1" parent="1">
          <mxGeometry x="990" y="740" width="100" height="40" as="geometry" />
        </mxCell>
        <mxCell id="wsBJ_Oin9y2qOtmXqsdJ-7" value="Vizard" style="ellipse;whiteSpace=wrap;html=1;rounded=1;" vertex="1" parent="1">
          <mxGeometry x="940" y="790" width="100" height="40" as="geometry" />
        </mxCell>
        <mxCell id="wsBJ_Oin9y2qOtmXqsdJ-8" value="" style="edgeStyle=none;shape=connector;rounded=0;orthogonalLoop=1;jettySize=auto;html=1;labelBackgroundColor=default;fontFamily=Helvetica;fontSize=12;fontColor=default;endArrow=classic;strokeColor=default;" edge="1" parent="1" source="wsBJ_Oin9y2qOtmXqsdJ-3" target="wsBJ_Oin9y2qOtmXqsdJ-7">
          <mxGeometry relative="1" as="geometry">
            <mxPoint x="851.7531560983002" y="742.8009518773183" as="sourcePoint" />
            <mxPoint x="797.7239989017514" y="735.9654998627191" as="targetPoint" />
          </mxGeometry>
        </mxCell>
      </root>
    </mxGraphModel>
  </diagram>
  <diagram id="DrmG8M57k9xSAHnfdgxm" name="BuisnessSide">
    <mxGraphModel dx="1152" dy="991" grid="1" gridSize="10" guides="1" tooltips="1" connect="1" arrows="1" fold="1" page="1" pageScale="1" pageWidth="1100" pageHeight="850" math="0" shadow="0">
      <root>
        <mxCell id="0" />
        <mxCell id="1" parent="0" />
        <mxCell id="hegKAdO6-hpRQHb36d8J-3" value="" style="edgeStyle=none;shape=connector;rounded=0;orthogonalLoop=1;jettySize=auto;html=1;labelBackgroundColor=default;fontFamily=Helvetica;fontSize=12;fontColor=default;endArrow=classic;strokeColor=default;" parent="1" source="hegKAdO6-hpRQHb36d8J-1" target="hegKAdO6-hpRQHb36d8J-2" edge="1">
          <mxGeometry relative="1" as="geometry" />
        </mxCell>
        <mxCell id="hegKAdO6-hpRQHb36d8J-13" value="" style="edgeStyle=none;shape=connector;rounded=0;orthogonalLoop=1;jettySize=auto;html=1;labelBackgroundColor=default;fontFamily=Helvetica;fontSize=12;fontColor=default;endArrow=classic;strokeColor=default;" parent="1" source="hegKAdO6-hpRQHb36d8J-1" target="hegKAdO6-hpRQHb36d8J-12" edge="1">
          <mxGeometry relative="1" as="geometry" />
        </mxCell>
        <mxCell id="hegKAdO6-hpRQHb36d8J-23" value="" style="edgeStyle=none;shape=connector;rounded=0;orthogonalLoop=1;jettySize=auto;html=1;labelBackgroundColor=default;fontFamily=Helvetica;fontSize=12;fontColor=default;endArrow=classic;strokeColor=default;" parent="1" source="hegKAdO6-hpRQHb36d8J-1" target="hegKAdO6-hpRQHb36d8J-22" edge="1">
          <mxGeometry relative="1" as="geometry" />
        </mxCell>
        <mxCell id="hegKAdO6-hpRQHb36d8J-31" value="" style="edgeStyle=none;shape=connector;rounded=0;orthogonalLoop=1;jettySize=auto;html=1;labelBackgroundColor=default;fontFamily=Helvetica;fontSize=12;fontColor=default;endArrow=classic;strokeColor=default;" parent="1" source="hegKAdO6-hpRQHb36d8J-1" target="hegKAdO6-hpRQHb36d8J-30" edge="1">
          <mxGeometry relative="1" as="geometry" />
        </mxCell>
        <mxCell id="aAfPVK7A3EIAtrme_YKy-2" value="" style="rounded=0;orthogonalLoop=1;jettySize=auto;html=1;" edge="1" parent="1" source="hegKAdO6-hpRQHb36d8J-1" target="z27867Sr2jYCwDqYNeku-1">
          <mxGeometry relative="1" as="geometry">
            <mxPoint x="300" y="450.7692307692307" as="targetPoint" />
          </mxGeometry>
        </mxCell>
        <mxCell id="hegKAdO6-hpRQHb36d8J-1" value="Modern Space Software" style="rounded=1;whiteSpace=wrap;html=1;fontFamily=Helvetica;fontSize=12;fontColor=default;strokeColor=default;fillColor=default;" parent="1" vertex="1">
          <mxGeometry x="420" y="380" width="160" height="80" as="geometry" />
        </mxCell>
        <mxCell id="hegKAdO6-hpRQHb36d8J-5" value="" style="edgeStyle=none;shape=connector;rounded=0;orthogonalLoop=1;jettySize=auto;html=1;labelBackgroundColor=default;fontFamily=Helvetica;fontSize=12;fontColor=default;endArrow=classic;strokeColor=default;" parent="1" source="hegKAdO6-hpRQHb36d8J-2" target="hegKAdO6-hpRQHb36d8J-4" edge="1">
          <mxGeometry relative="1" as="geometry" />
        </mxCell>
        <mxCell id="hegKAdO6-hpRQHb36d8J-7" value="" style="edgeStyle=none;shape=connector;rounded=0;orthogonalLoop=1;jettySize=auto;html=1;labelBackgroundColor=default;fontFamily=Helvetica;fontSize=12;fontColor=default;endArrow=classic;strokeColor=default;" parent="1" source="hegKAdO6-hpRQHb36d8J-2" target="hegKAdO6-hpRQHb36d8J-6" edge="1">
          <mxGeometry relative="1" as="geometry" />
        </mxCell>
        <mxCell id="hegKAdO6-hpRQHb36d8J-11" value="" style="edgeStyle=none;shape=connector;rounded=0;orthogonalLoop=1;jettySize=auto;html=1;labelBackgroundColor=default;fontFamily=Helvetica;fontSize=12;fontColor=default;endArrow=classic;strokeColor=default;" parent="1" source="hegKAdO6-hpRQHb36d8J-2" target="hegKAdO6-hpRQHb36d8J-10" edge="1">
          <mxGeometry relative="1" as="geometry" />
        </mxCell>
        <mxCell id="hegKAdO6-hpRQHb36d8J-2" value="Funding Sorces" style="whiteSpace=wrap;html=1;rounded=1;shadow=0;" parent="1" vertex="1">
          <mxGeometry x="240" y="190" width="120" height="60" as="geometry" />
        </mxCell>
        <mxCell id="hegKAdO6-hpRQHb36d8J-4" value="Venture Capital" style="ellipse;whiteSpace=wrap;html=1;rounded=1;shadow=0;" parent="1" vertex="1">
          <mxGeometry x="150" y="60" width="120" height="60" as="geometry" />
        </mxCell>
        <mxCell id="hegKAdO6-hpRQHb36d8J-6" value="Bootstrapped" style="ellipse;whiteSpace=wrap;html=1;rounded=1;shadow=0;" parent="1" vertex="1">
          <mxGeometry x="60" y="130" width="120" height="60" as="geometry" />
        </mxCell>
        <mxCell id="hegKAdO6-hpRQHb36d8J-10" value="Company Partnership" style="ellipse;whiteSpace=wrap;html=1;rounded=1;shadow=0;" parent="1" vertex="1">
          <mxGeometry x="40" y="210" width="120" height="60" as="geometry" />
        </mxCell>
        <mxCell id="hegKAdO6-hpRQHb36d8J-17" value="" style="edgeStyle=none;shape=connector;rounded=0;orthogonalLoop=1;jettySize=auto;html=1;labelBackgroundColor=default;fontFamily=Helvetica;fontSize=12;fontColor=default;endArrow=classic;strokeColor=default;" parent="1" source="hegKAdO6-hpRQHb36d8J-12" target="hegKAdO6-hpRQHb36d8J-16" edge="1">
          <mxGeometry relative="1" as="geometry" />
        </mxCell>
        <mxCell id="hegKAdO6-hpRQHb36d8J-19" value="" style="edgeStyle=none;shape=connector;rounded=0;orthogonalLoop=1;jettySize=auto;html=1;labelBackgroundColor=default;fontFamily=Helvetica;fontSize=12;fontColor=default;endArrow=classic;strokeColor=default;" parent="1" source="hegKAdO6-hpRQHb36d8J-12" target="hegKAdO6-hpRQHb36d8J-18" edge="1">
          <mxGeometry relative="1" as="geometry" />
        </mxCell>
        <mxCell id="hegKAdO6-hpRQHb36d8J-21" value="" style="edgeStyle=none;shape=connector;rounded=0;orthogonalLoop=1;jettySize=auto;html=1;labelBackgroundColor=default;fontFamily=Helvetica;fontSize=12;fontColor=default;endArrow=classic;strokeColor=default;" parent="1" source="hegKAdO6-hpRQHb36d8J-12" target="hegKAdO6-hpRQHb36d8J-20" edge="1">
          <mxGeometry relative="1" as="geometry" />
        </mxCell>
        <mxCell id="hegKAdO6-hpRQHb36d8J-12" value="Customers" style="whiteSpace=wrap;html=1;rounded=1;" parent="1" vertex="1">
          <mxGeometry x="610" y="170" width="120" height="60" as="geometry" />
        </mxCell>
        <mxCell id="hegKAdO6-hpRQHb36d8J-16" value="New Space Companies" style="ellipse;whiteSpace=wrap;html=1;rounded=1;" parent="1" vertex="1">
          <mxGeometry x="610" y="50" width="120" height="60" as="geometry" />
        </mxCell>
        <mxCell id="hegKAdO6-hpRQHb36d8J-18" value="Gov/Civil" style="ellipse;whiteSpace=wrap;html=1;rounded=1;" parent="1" vertex="1">
          <mxGeometry x="750" y="70" width="120" height="60" as="geometry" />
        </mxCell>
        <mxCell id="hegKAdO6-hpRQHb36d8J-20" value="Student Teams (Mathworks strat)" style="ellipse;whiteSpace=wrap;html=1;rounded=1;" parent="1" vertex="1">
          <mxGeometry x="780" y="170" width="120" height="60" as="geometry" />
        </mxCell>
        <mxCell id="hegKAdO6-hpRQHb36d8J-27" value="" style="edgeStyle=none;shape=connector;rounded=0;orthogonalLoop=1;jettySize=auto;html=1;labelBackgroundColor=default;fontFamily=Helvetica;fontSize=12;fontColor=default;endArrow=classic;strokeColor=default;" parent="1" source="hegKAdO6-hpRQHb36d8J-22" target="hegKAdO6-hpRQHb36d8J-26" edge="1">
          <mxGeometry relative="1" as="geometry" />
        </mxCell>
        <mxCell id="hegKAdO6-hpRQHb36d8J-29" value="" style="edgeStyle=none;shape=connector;rounded=0;orthogonalLoop=1;jettySize=auto;html=1;labelBackgroundColor=default;fontFamily=Helvetica;fontSize=12;fontColor=default;endArrow=classic;strokeColor=default;" parent="1" source="hegKAdO6-hpRQHb36d8J-22" target="hegKAdO6-hpRQHb36d8J-28" edge="1">
          <mxGeometry relative="1" as="geometry" />
        </mxCell>
        <mxCell id="aAfPVK7A3EIAtrme_YKy-7" value="" style="edgeStyle=none;shape=connector;rounded=0;orthogonalLoop=1;jettySize=auto;html=1;labelBackgroundColor=default;fontFamily=Helvetica;fontSize=12;fontColor=default;endArrow=classic;strokeColor=default;" edge="1" parent="1" source="hegKAdO6-hpRQHb36d8J-22" target="aAfPVK7A3EIAtrme_YKy-6">
          <mxGeometry relative="1" as="geometry" />
        </mxCell>
        <mxCell id="hegKAdO6-hpRQHb36d8J-22" value="Business Type" style="whiteSpace=wrap;html=1;rounded=1;" parent="1" vertex="1">
          <mxGeometry x="750" y="450" width="120" height="60" as="geometry" />
        </mxCell>
        <mxCell id="hegKAdO6-hpRQHb36d8J-26" value="Providing service" style="ellipse;whiteSpace=wrap;html=1;rounded=1;" parent="1" vertex="1">
          <mxGeometry x="850" y="370" width="120" height="60" as="geometry" />
        </mxCell>
        <mxCell id="hegKAdO6-hpRQHb36d8J-28" value="Selling full stack" style="ellipse;whiteSpace=wrap;html=1;rounded=1;" parent="1" vertex="1">
          <mxGeometry x="940" y="460" width="120" height="60" as="geometry" />
        </mxCell>
        <mxCell id="hegKAdO6-hpRQHb36d8J-33" value="" style="edgeStyle=none;shape=connector;rounded=0;orthogonalLoop=1;jettySize=auto;html=1;labelBackgroundColor=default;fontFamily=Helvetica;fontSize=12;fontColor=default;endArrow=classic;strokeColor=default;" parent="1" source="hegKAdO6-hpRQHb36d8J-30" target="hegKAdO6-hpRQHb36d8J-32" edge="1">
          <mxGeometry relative="1" as="geometry" />
        </mxCell>
        <mxCell id="hegKAdO6-hpRQHb36d8J-30" value="Goals" style="whiteSpace=wrap;html=1;rounded=1;" parent="1" vertex="1">
          <mxGeometry x="500" y="590" width="120" height="60" as="geometry" />
        </mxCell>
        <mxCell id="hegKAdO6-hpRQHb36d8J-32" value="Become the baseline tool for all new space companies" style="ellipse;whiteSpace=wrap;html=1;rounded=1;" parent="1" vertex="1">
          <mxGeometry x="500" y="700" width="120" height="60" as="geometry" />
        </mxCell>
        <mxCell id="aAfPVK7A3EIAtrme_YKy-6" value="SAAS" style="ellipse;whiteSpace=wrap;html=1;rounded=1;" vertex="1" parent="1">
          <mxGeometry x="850" y="550" width="120" height="60" as="geometry" />
        </mxCell>
        <mxCell id="z27867Sr2jYCwDqYNeku-1" value="" style="rounded=1;whiteSpace=wrap;html=1;fontFamily=Helvetica;fontSize=12;fontColor=default;" vertex="1" parent="1">
          <mxGeometry x="170" y="425" width="120" height="60" as="geometry" />
        </mxCell>
      </root>
    </mxGraphModel>
  </diagram>
</mxfile>
